<svg width="145" height="65" viewBox="0 0 145 65" fill="none" xmlns="http://www.w3.org/2000/svg">
<path d="M4.1988 49.724C4.1988 49.724 14.6427 34.6991 25.61 32.539C36.5773 30.379 43.5519 41.9733 50.0033 40.7026C56.4546 39.432 79.1379 20.9777 92.7039 19.3246C106.27 17.6715 120.968 26.7258 125.484 25.8364C130 24.9469 141.4 14.7768 141.4 14.7768M1.46692 35.8531C1.46692 35.8531 11.9109 20.8282 22.8781 18.6681C33.8454 16.5081 40.8201 28.1024 47.2714 26.8317C53.7227 25.5611 76.406 7.10684 89.972 5.4537C103.538 3.80057 118.236 12.8549 122.752 11.9655C127.268 11.076 138.668 0.905884 138.668 0.905884M6.9307 63.5947C6.9307 63.5947 17.3746 48.5697 28.3419 46.4097C39.3092 44.2496 46.2838 55.8439 52.7352 54.5733C59.1865 53.3027 81.8698 34.8484 95.4358 33.1952C109.002 31.5421 123.7 40.5965 128.216 39.707C132.732 38.8176 144.132 28.6474 144.132 28.6474" stroke="#2AAC6B" stroke-width="2"/>
</svg>
