<svg width="128" height="61" viewBox="0 0 128 61" fill="none" xmlns="http://www.w3.org/2000/svg">
<path d="M3.66389 47.2964C3.66389 47.2964 12.5147 33.1704 22.1766 31.0884C31.8386 29.0063 38.3332 39.8255 44.0167 38.6008C49.7002 37.376 69.3061 19.9725 81.2849 18.3511C93.2638 16.7297 106.535 25.1287 110.514 24.2714C114.492 23.414 124.321 13.8289 124.321 13.8289M0.868164 34.3226C0.868164 34.3226 9.71897 20.1966 19.3809 18.1145C29.0428 16.0325 35.5375 26.8517 41.221 25.6269C46.9044 24.4022 66.5104 6.99872 78.4892 5.37729C90.468 3.75585 103.739 12.1548 107.718 11.2975C111.696 10.4402 121.526 0.855103 121.526 0.855103M6.45966 60.2704C6.45966 60.2704 15.3105 46.1444 24.9724 44.0624C34.6343 41.9803 41.129 52.7995 46.8125 51.5748C52.4959 50.35 72.1019 32.9465 84.0807 31.3251C96.0596 29.7037 109.331 38.1027 113.309 37.2454C117.288 36.388 127.117 26.8029 127.117 26.8029" stroke="#FFB802" stroke-width="2"/>
</svg>
